<mxfile host="app.diagrams.net" modified="2024-05-19T19:32:36.642Z" agent="Mozilla/5.0 (Windows NT 10.0; Win64; x64) AppleWebKit/537.36 (KHTML, like Gecko) Chrome/124.0.0.0 Safari/537.36" etag="LG4sMj7s2m96CvnEUSzH" version="24.4.4" type="device">
  <diagram name="PÃ¡gina-1" id="pG7MugrTjKCeWoQ-RraY">
    <mxGraphModel dx="819" dy="426" grid="1" gridSize="10" guides="1" tooltips="1" connect="1" arrows="1" fold="1" page="1" pageScale="1" pageWidth="850" pageHeight="1100" math="0" shadow="0">
      <root>
        <mxCell id="0" />
        <mxCell id="1" parent="0" />
        <mxCell id="sE2eDl3IBhnxxQkwJqKN-86" value="" style="rounded=0;whiteSpace=wrap;html=1;strokeColor=none;" vertex="1" parent="1">
          <mxGeometry x="30" y="10" width="840" height="270" as="geometry" />
        </mxCell>
        <mxCell id="sE2eDl3IBhnxxQkwJqKN-63" value="" style="rounded=0;whiteSpace=wrap;html=1;fillColor=#eeeeee;strokeColor=none;" vertex="1" parent="1">
          <mxGeometry x="150" y="50" width="100" height="200" as="geometry" />
        </mxCell>
        <mxCell id="sE2eDl3IBhnxxQkwJqKN-62" value="" style="rounded=0;whiteSpace=wrap;html=1;fillColor=#eeeeee;strokeColor=none;" vertex="1" parent="1">
          <mxGeometry x="670" y="150" width="130" height="100" as="geometry" />
        </mxCell>
        <mxCell id="sE2eDl3IBhnxxQkwJqKN-61" value="" style="rounded=0;whiteSpace=wrap;html=1;fillColor=#eeeeee;strokeColor=none;" vertex="1" parent="1">
          <mxGeometry x="630" y="30" width="200" height="100" as="geometry" />
        </mxCell>
        <mxCell id="sE2eDl3IBhnxxQkwJqKN-57" value="" style="rounded=0;whiteSpace=wrap;html=1;strokeColor=none;fillColor=#eeeeee;" vertex="1" parent="1">
          <mxGeometry x="280" y="20" width="320" height="250" as="geometry" />
        </mxCell>
        <mxCell id="sE2eDl3IBhnxxQkwJqKN-58" value="" style="rounded=0;whiteSpace=wrap;html=1;fillColor=#ffcccc;strokeColor=none;" vertex="1" parent="1">
          <mxGeometry x="290" y="40" width="300" height="50" as="geometry" />
        </mxCell>
        <mxCell id="sE2eDl3IBhnxxQkwJqKN-59" value="" style="rounded=0;whiteSpace=wrap;html=1;fillColor=#ffff88;strokeColor=none;" vertex="1" parent="1">
          <mxGeometry x="290" y="120" width="300" height="50" as="geometry" />
        </mxCell>
        <mxCell id="sE2eDl3IBhnxxQkwJqKN-60" value="" style="rounded=0;whiteSpace=wrap;html=1;fillColor=#cce5ff;strokeColor=none;" vertex="1" parent="1">
          <mxGeometry x="290" y="200" width="300" height="50" as="geometry" />
        </mxCell>
        <mxCell id="sE2eDl3IBhnxxQkwJqKN-1" value="User" style="rounded=0;whiteSpace=wrap;html=1;" vertex="1" parent="1">
          <mxGeometry x="740" y="40" width="80" height="30" as="geometry" />
        </mxCell>
        <mxCell id="sE2eDl3IBhnxxQkwJqKN-49" style="edgeStyle=orthogonalEdgeStyle;rounded=0;orthogonalLoop=1;jettySize=auto;html=1;exitX=0;exitY=0.75;exitDx=0;exitDy=0;entryX=0.674;entryY=-0.003;entryDx=0;entryDy=0;startArrow=block;startFill=1;endArrow=none;endFill=0;strokeColor=#330066;entryPerimeter=0;" edge="1" parent="1" source="sE2eDl3IBhnxxQkwJqKN-2" target="sE2eDl3IBhnxxQkwJqKN-14">
          <mxGeometry relative="1" as="geometry">
            <Array as="points">
              <mxPoint x="600" y="62" />
              <mxPoint x="600" y="110" />
              <mxPoint x="354" y="110" />
            </Array>
          </mxGeometry>
        </mxCell>
        <mxCell id="sE2eDl3IBhnxxQkwJqKN-2" value="Product" style="rounded=0;whiteSpace=wrap;html=1;" vertex="1" parent="1">
          <mxGeometry x="640" y="40" width="80" height="30" as="geometry" />
        </mxCell>
        <mxCell id="sE2eDl3IBhnxxQkwJqKN-3" value="OnlineCar" style="rounded=0;whiteSpace=wrap;html=1;" vertex="1" parent="1">
          <mxGeometry x="640" y="90" width="80" height="30" as="geometry" />
        </mxCell>
        <mxCell id="sE2eDl3IBhnxxQkwJqKN-4" value="ECommerceUtil" style="rounded=0;whiteSpace=wrap;html=1;" vertex="1" parent="1">
          <mxGeometry x="680" y="160" width="110" height="30" as="geometry" />
        </mxCell>
        <mxCell id="sE2eDl3IBhnxxQkwJqKN-48" style="edgeStyle=orthogonalEdgeStyle;rounded=0;orthogonalLoop=1;jettySize=auto;html=1;entryX=0.5;entryY=1;entryDx=0;entryDy=0;endArrow=block;endFill=1;strokeColor=#666666;" edge="1" parent="1" source="sE2eDl3IBhnxxQkwJqKN-6" target="sE2eDl3IBhnxxQkwJqKN-1">
          <mxGeometry relative="1" as="geometry" />
        </mxCell>
        <mxCell id="sE2eDl3IBhnxxQkwJqKN-6" value="FederalEntity" style="rounded=0;whiteSpace=wrap;html=1;" vertex="1" parent="1">
          <mxGeometry x="740" y="90" width="80" height="30" as="geometry" />
        </mxCell>
        <mxCell id="sE2eDl3IBhnxxQkwJqKN-77" style="edgeStyle=orthogonalEdgeStyle;rounded=0;orthogonalLoop=1;jettySize=auto;html=1;entryX=0;entryY=0.5;entryDx=0;entryDy=0;strokeColor=#009900;" edge="1" parent="1" source="sE2eDl3IBhnxxQkwJqKN-7" target="sE2eDl3IBhnxxQkwJqKN-76">
          <mxGeometry relative="1" as="geometry" />
        </mxCell>
        <mxCell id="sE2eDl3IBhnxxQkwJqKN-7" value="FileECommerceUtil" style="rounded=0;whiteSpace=wrap;html=1;" vertex="1" parent="1">
          <mxGeometry x="680" y="210" width="110" height="30" as="geometry" />
        </mxCell>
        <mxCell id="sE2eDl3IBhnxxQkwJqKN-46" style="edgeStyle=orthogonalEdgeStyle;rounded=0;orthogonalLoop=1;jettySize=auto;html=1;exitX=0.25;exitY=1;exitDx=0;exitDy=0;entryX=0;entryY=0.5;entryDx=0;entryDy=0;endArrow=block;endFill=1;strokeColor=#330066;" edge="1" parent="1" source="sE2eDl3IBhnxxQkwJqKN-8" target="sE2eDl3IBhnxxQkwJqKN-3">
          <mxGeometry relative="1" as="geometry">
            <Array as="points">
              <mxPoint x="320" y="260" />
              <mxPoint x="620" y="260" />
              <mxPoint x="620" y="105" />
            </Array>
          </mxGeometry>
        </mxCell>
        <mxCell id="sE2eDl3IBhnxxQkwJqKN-8" value="GET" style="rounded=0;whiteSpace=wrap;html=1;" vertex="1" parent="1">
          <mxGeometry x="300" y="210" width="80" height="30" as="geometry" />
        </mxCell>
        <mxCell id="sE2eDl3IBhnxxQkwJqKN-9" value="POST" style="rounded=0;whiteSpace=wrap;html=1;" vertex="1" parent="1">
          <mxGeometry x="400" y="210" width="80" height="30" as="geometry" />
        </mxCell>
        <mxCell id="sE2eDl3IBhnxxQkwJqKN-10" value="PUT" style="rounded=0;whiteSpace=wrap;html=1;" vertex="1" parent="1">
          <mxGeometry x="500" y="210" width="80" height="30" as="geometry" />
        </mxCell>
        <mxCell id="sE2eDl3IBhnxxQkwJqKN-54" style="edgeStyle=orthogonalEdgeStyle;rounded=0;orthogonalLoop=1;jettySize=auto;html=1;exitX=0.75;exitY=1;exitDx=0;exitDy=0;entryX=0;entryY=0.75;entryDx=0;entryDy=0;endArrow=blockThin;endFill=1;strokeColor=#009900;" edge="1" parent="1" source="sE2eDl3IBhnxxQkwJqKN-11" target="sE2eDl3IBhnxxQkwJqKN-4">
          <mxGeometry relative="1" as="geometry">
            <Array as="points">
              <mxPoint x="360" y="120" />
              <mxPoint x="600" y="120" />
              <mxPoint x="600" y="183" />
            </Array>
          </mxGeometry>
        </mxCell>
        <mxCell id="sE2eDl3IBhnxxQkwJqKN-11" value="GET" style="rounded=0;whiteSpace=wrap;html=1;" vertex="1" parent="1">
          <mxGeometry x="300" y="50" width="80" height="30" as="geometry" />
        </mxCell>
        <mxCell id="sE2eDl3IBhnxxQkwJqKN-52" style="edgeStyle=orthogonalEdgeStyle;rounded=0;orthogonalLoop=1;jettySize=auto;html=1;exitX=0.75;exitY=1;exitDx=0;exitDy=0;endArrow=blockThin;endFill=1;strokeColor=#009900;" edge="1" parent="1" source="sE2eDl3IBhnxxQkwJqKN-12">
          <mxGeometry relative="1" as="geometry">
            <mxPoint x="680" y="170" as="targetPoint" />
            <Array as="points">
              <mxPoint x="460" y="100" />
              <mxPoint x="590" y="100" />
              <mxPoint x="590" y="170" />
              <mxPoint x="680" y="170" />
            </Array>
          </mxGeometry>
        </mxCell>
        <mxCell id="sE2eDl3IBhnxxQkwJqKN-72" style="edgeStyle=orthogonalEdgeStyle;rounded=0;orthogonalLoop=1;jettySize=auto;html=1;entryX=0;entryY=0.5;entryDx=0;entryDy=0;exitX=1;exitY=0.5;exitDx=0;exitDy=0;endArrow=block;endFill=1;strokeColor=#CC0000;" edge="1" parent="1" source="sE2eDl3IBhnxxQkwJqKN-12" target="sE2eDl3IBhnxxQkwJqKN-7">
          <mxGeometry relative="1" as="geometry">
            <Array as="points">
              <mxPoint x="490" y="65" />
              <mxPoint x="490" y="90" />
              <mxPoint x="610" y="90" />
              <mxPoint x="610" y="225" />
            </Array>
          </mxGeometry>
        </mxCell>
        <mxCell id="sE2eDl3IBhnxxQkwJqKN-12" value="POST" style="rounded=0;whiteSpace=wrap;html=1;" vertex="1" parent="1">
          <mxGeometry x="400" y="50" width="80" height="30" as="geometry" />
        </mxCell>
        <mxCell id="sE2eDl3IBhnxxQkwJqKN-14" value="GET" style="rounded=0;whiteSpace=wrap;html=1;" vertex="1" parent="1">
          <mxGeometry x="300" y="130" width="80" height="30" as="geometry" />
        </mxCell>
        <mxCell id="sE2eDl3IBhnxxQkwJqKN-15" value="POST" style="rounded=0;whiteSpace=wrap;html=1;" vertex="1" parent="1">
          <mxGeometry x="400" y="130" width="80" height="30" as="geometry" />
        </mxCell>
        <mxCell id="sE2eDl3IBhnxxQkwJqKN-43" style="edgeStyle=orthogonalEdgeStyle;rounded=0;orthogonalLoop=1;jettySize=auto;html=1;entryX=0.5;entryY=0;entryDx=0;entryDy=0;endArrow=block;endFill=1;dashed=1;strokeColor=#660000;" edge="1" parent="1" target="sE2eDl3IBhnxxQkwJqKN-10">
          <mxGeometry relative="1" as="geometry">
            <mxPoint x="540" y="190" as="sourcePoint" />
          </mxGeometry>
        </mxCell>
        <mxCell id="sE2eDl3IBhnxxQkwJqKN-16" value="PUT" style="rounded=0;whiteSpace=wrap;html=1;" vertex="1" parent="1">
          <mxGeometry x="500" y="130" width="80" height="30" as="geometry" />
        </mxCell>
        <mxCell id="sE2eDl3IBhnxxQkwJqKN-50" style="edgeStyle=orthogonalEdgeStyle;rounded=0;orthogonalLoop=1;jettySize=auto;html=1;exitX=0.75;exitY=0;exitDx=0;exitDy=0;entryX=0.5;entryY=0;entryDx=0;entryDy=0;endArrow=block;endFill=1;strokeColor=#330066;" edge="1" parent="1" source="sE2eDl3IBhnxxQkwJqKN-17" target="sE2eDl3IBhnxxQkwJqKN-1">
          <mxGeometry relative="1" as="geometry">
            <Array as="points">
              <mxPoint x="560" y="30" />
              <mxPoint x="780" y="30" />
            </Array>
          </mxGeometry>
        </mxCell>
        <mxCell id="sE2eDl3IBhnxxQkwJqKN-17" value="GET" style="rounded=0;whiteSpace=wrap;html=1;" vertex="1" parent="1">
          <mxGeometry x="500" y="50" width="80" height="30" as="geometry" />
        </mxCell>
        <mxCell id="sE2eDl3IBhnxxQkwJqKN-18" value="View1" style="rounded=0;whiteSpace=wrap;html=1;" vertex="1" parent="1">
          <mxGeometry x="160" y="60" width="80" height="30" as="geometry" />
        </mxCell>
        <mxCell id="sE2eDl3IBhnxxQkwJqKN-27" style="edgeStyle=orthogonalEdgeStyle;rounded=0;orthogonalLoop=1;jettySize=auto;html=1;entryX=0.5;entryY=1;entryDx=0;entryDy=0;exitX=1;exitY=0.5;exitDx=0;exitDy=0;strokeColor=#660000;" edge="1" parent="1" source="sE2eDl3IBhnxxQkwJqKN-20" target="sE2eDl3IBhnxxQkwJqKN-12">
          <mxGeometry relative="1" as="geometry">
            <Array as="points">
              <mxPoint x="250" y="125" />
              <mxPoint x="250" y="100" />
              <mxPoint x="440" y="100" />
            </Array>
          </mxGeometry>
        </mxCell>
        <mxCell id="sE2eDl3IBhnxxQkwJqKN-20" value="View2" style="rounded=0;whiteSpace=wrap;html=1;" vertex="1" parent="1">
          <mxGeometry x="160" y="110" width="80" height="30" as="geometry" />
        </mxCell>
        <mxCell id="sE2eDl3IBhnxxQkwJqKN-31" style="edgeStyle=orthogonalEdgeStyle;rounded=0;orthogonalLoop=1;jettySize=auto;html=1;entryX=0.5;entryY=1;entryDx=0;entryDy=0;endArrow=block;endFill=1;strokeColor=#660000;" edge="1" parent="1" source="sE2eDl3IBhnxxQkwJqKN-21" target="sE2eDl3IBhnxxQkwJqKN-15">
          <mxGeometry relative="1" as="geometry">
            <Array as="points">
              <mxPoint x="440" y="175" />
            </Array>
          </mxGeometry>
        </mxCell>
        <mxCell id="sE2eDl3IBhnxxQkwJqKN-21" value="View3" style="rounded=0;whiteSpace=wrap;html=1;" vertex="1" parent="1">
          <mxGeometry x="160" y="160" width="80" height="30" as="geometry" />
        </mxCell>
        <mxCell id="sE2eDl3IBhnxxQkwJqKN-33" style="edgeStyle=orthogonalEdgeStyle;rounded=0;orthogonalLoop=1;jettySize=auto;html=1;exitX=1;exitY=0.25;exitDx=0;exitDy=0;entryX=0;entryY=0.25;entryDx=0;entryDy=0;endArrow=block;endFill=1;strokeColor=#660000;" edge="1" parent="1" source="sE2eDl3IBhnxxQkwJqKN-22" target="sE2eDl3IBhnxxQkwJqKN-14">
          <mxGeometry relative="1" as="geometry" />
        </mxCell>
        <mxCell id="sE2eDl3IBhnxxQkwJqKN-35" style="edgeStyle=orthogonalEdgeStyle;rounded=0;orthogonalLoop=1;jettySize=auto;html=1;exitX=1;exitY=0.75;exitDx=0;exitDy=0;entryX=0.5;entryY=1;entryDx=0;entryDy=0;endArrow=block;endFill=1;strokeColor=#660000;" edge="1" parent="1" source="sE2eDl3IBhnxxQkwJqKN-22" target="sE2eDl3IBhnxxQkwJqKN-9">
          <mxGeometry relative="1" as="geometry">
            <Array as="points">
              <mxPoint x="280" y="233" />
              <mxPoint x="280" y="250" />
              <mxPoint x="440" y="250" />
            </Array>
          </mxGeometry>
        </mxCell>
        <mxCell id="sE2eDl3IBhnxxQkwJqKN-36" style="edgeStyle=orthogonalEdgeStyle;rounded=0;orthogonalLoop=1;jettySize=auto;html=1;entryX=0;entryY=0.5;entryDx=0;entryDy=0;endArrow=block;endFill=1;strokeColor=#660000;" edge="1" parent="1" source="sE2eDl3IBhnxxQkwJqKN-22" target="sE2eDl3IBhnxxQkwJqKN-8">
          <mxGeometry relative="1" as="geometry" />
        </mxCell>
        <mxCell id="sE2eDl3IBhnxxQkwJqKN-41" style="edgeStyle=orthogonalEdgeStyle;rounded=0;orthogonalLoop=1;jettySize=auto;html=1;entryX=0.5;entryY=1;entryDx=0;entryDy=0;exitX=0.5;exitY=0;exitDx=0;exitDy=0;endArrow=block;endFill=1;dashed=1;strokeColor=#660000;" edge="1" parent="1" source="sE2eDl3IBhnxxQkwJqKN-22" target="sE2eDl3IBhnxxQkwJqKN-16">
          <mxGeometry relative="1" as="geometry">
            <Array as="points">
              <mxPoint x="200" y="200" />
              <mxPoint x="280" y="200" />
              <mxPoint x="280" y="190" />
              <mxPoint x="540" y="190" />
            </Array>
          </mxGeometry>
        </mxCell>
        <mxCell id="sE2eDl3IBhnxxQkwJqKN-22" value="View4" style="rounded=0;whiteSpace=wrap;html=1;" vertex="1" parent="1">
          <mxGeometry x="160" y="210" width="80" height="30" as="geometry" />
        </mxCell>
        <mxCell id="sE2eDl3IBhnxxQkwJqKN-23" value="" style="endArrow=block;html=1;rounded=0;exitX=1;exitY=0.5;exitDx=0;exitDy=0;entryX=0;entryY=0.5;entryDx=0;entryDy=0;endFill=1;strokeColor=#660000;" edge="1" parent="1" source="sE2eDl3IBhnxxQkwJqKN-18" target="sE2eDl3IBhnxxQkwJqKN-11">
          <mxGeometry width="50" height="50" relative="1" as="geometry">
            <mxPoint x="330" y="140" as="sourcePoint" />
            <mxPoint x="380" y="90" as="targetPoint" />
            <Array as="points">
              <mxPoint x="270" y="75" />
              <mxPoint x="270" y="65" />
            </Array>
          </mxGeometry>
        </mxCell>
        <mxCell id="sE2eDl3IBhnxxQkwJqKN-24" value="get user" style="text;html=1;align=center;verticalAlign=middle;whiteSpace=wrap;rounded=0;fontSize=5;" vertex="1" parent="1">
          <mxGeometry x="250" y="55" width="40" height="10" as="geometry" />
        </mxCell>
        <mxCell id="sE2eDl3IBhnxxQkwJqKN-25" value="Service User" style="text;html=1;align=center;verticalAlign=middle;whiteSpace=wrap;rounded=0;fontSize=7;labelPosition=center;verticalLabelPosition=middle;fontStyle=1" vertex="1" parent="1">
          <mxGeometry x="290" y="40" width="49" height="10" as="geometry" />
        </mxCell>
        <mxCell id="sE2eDl3IBhnxxQkwJqKN-26" value="" style="endArrow=block;html=1;rounded=0;exitX=0.5;exitY=0;exitDx=0;exitDy=0;entryX=0.5;entryY=0;entryDx=0;entryDy=0;endFill=1;strokeColor=#EA6B66;" edge="1" parent="1" source="sE2eDl3IBhnxxQkwJqKN-11" target="sE2eDl3IBhnxxQkwJqKN-17">
          <mxGeometry width="50" height="50" relative="1" as="geometry">
            <mxPoint x="410" y="110" as="sourcePoint" />
            <mxPoint x="460" y="60" as="targetPoint" />
            <Array as="points">
              <mxPoint x="340" y="30" />
              <mxPoint x="440" y="30" />
              <mxPoint x="540" y="30" />
            </Array>
          </mxGeometry>
        </mxCell>
        <mxCell id="sE2eDl3IBhnxxQkwJqKN-30" value="save user" style="text;html=1;align=center;verticalAlign=middle;whiteSpace=wrap;rounded=0;fontSize=5;" vertex="1" parent="1">
          <mxGeometry x="320" y="90" width="40" height="10" as="geometry" />
        </mxCell>
        <mxCell id="sE2eDl3IBhnxxQkwJqKN-32" value="save product" style="text;html=1;align=center;verticalAlign=middle;whiteSpace=wrap;rounded=0;fontSize=5;" vertex="1" parent="1">
          <mxGeometry x="330" y="173" width="40" height="10" as="geometry" />
        </mxCell>
        <mxCell id="sE2eDl3IBhnxxQkwJqKN-34" value="get all products" style="text;html=1;align=center;verticalAlign=middle;whiteSpace=wrap;rounded=0;fontSize=5;" vertex="1" parent="1">
          <mxGeometry x="251" y="127" width="40" height="10" as="geometry" />
        </mxCell>
        <mxCell id="sE2eDl3IBhnxxQkwJqKN-37" value="save product to in car" style="text;html=1;align=center;verticalAlign=middle;whiteSpace=wrap;rounded=0;fontSize=5;" vertex="1" parent="1">
          <mxGeometry x="336" y="240" width="50" height="10" as="geometry" />
        </mxCell>
        <mxCell id="sE2eDl3IBhnxxQkwJqKN-38" value="get product of car" style="text;html=1;align=center;verticalAlign=middle;whiteSpace=wrap;rounded=0;fontSize=5;" vertex="1" parent="1">
          <mxGeometry x="241" y="215" width="50" height="10" as="geometry" />
        </mxCell>
        <mxCell id="sE2eDl3IBhnxxQkwJqKN-42" value="update product" style="text;html=1;align=center;verticalAlign=middle;whiteSpace=wrap;rounded=0;fontSize=5;" vertex="1" parent="1">
          <mxGeometry x="407" y="180" width="40" height="10" as="geometry" />
        </mxCell>
        <mxCell id="sE2eDl3IBhnxxQkwJqKN-44" value="update product in to car" style="text;html=1;align=center;verticalAlign=middle;whiteSpace=wrap;rounded=0;fontSize=5;" vertex="1" parent="1">
          <mxGeometry x="398" y="187" width="57" height="10" as="geometry" />
        </mxCell>
        <mxCell id="sE2eDl3IBhnxxQkwJqKN-51" value="" style="endArrow=none;html=1;rounded=0;entryX=0.75;entryY=1;entryDx=0;entryDy=0;strokeColor=#330066;" edge="1" parent="1" target="sE2eDl3IBhnxxQkwJqKN-9">
          <mxGeometry width="50" height="50" relative="1" as="geometry">
            <mxPoint x="460" y="260" as="sourcePoint" />
            <mxPoint x="580" y="190" as="targetPoint" />
          </mxGeometry>
        </mxCell>
        <mxCell id="sE2eDl3IBhnxxQkwJqKN-53" value="encode password" style="text;html=1;align=center;verticalAlign=middle;whiteSpace=wrap;rounded=0;fontSize=5;" vertex="1" parent="1">
          <mxGeometry x="607" y="160" width="80" height="10" as="geometry" />
        </mxCell>
        <mxCell id="sE2eDl3IBhnxxQkwJqKN-55" value="decode password" style="text;html=1;align=center;verticalAlign=middle;whiteSpace=wrap;rounded=0;fontSize=5;" vertex="1" parent="1">
          <mxGeometry x="607" y="172" width="80" height="10" as="geometry" />
        </mxCell>
        <mxCell id="sE2eDl3IBhnxxQkwJqKN-65" value="get instance User" style="text;html=1;align=center;verticalAlign=middle;whiteSpace=wrap;rounded=0;fontSize=5;" vertex="1" parent="1">
          <mxGeometry x="630" y="20" width="80" height="10" as="geometry" />
        </mxCell>
        <mxCell id="sE2eDl3IBhnxxQkwJqKN-66" value="get instance Product" style="text;html=1;align=center;verticalAlign=middle;whiteSpace=wrap;rounded=0;fontSize=5;" vertex="1" parent="1">
          <mxGeometry x="447" y="100" width="80" height="10" as="geometry" />
        </mxCell>
        <mxCell id="sE2eDl3IBhnxxQkwJqKN-68" value="get instance OnlienCar" style="text;html=1;align=center;verticalAlign=middle;whiteSpace=wrap;rounded=0;fontSize=5;" vertex="1" parent="1">
          <mxGeometry x="510" y="250" width="80" height="10" as="geometry" />
        </mxCell>
        <mxCell id="sE2eDl3IBhnxxQkwJqKN-69" value="" style="endArrow=none;html=1;rounded=0;exitX=0.5;exitY=0;exitDx=0;exitDy=0;strokeColor=#330066;" edge="1" parent="1" source="sE2eDl3IBhnxxQkwJqKN-15">
          <mxGeometry width="50" height="50" relative="1" as="geometry">
            <mxPoint x="450" y="90" as="sourcePoint" />
            <mxPoint x="440" y="110" as="targetPoint" />
          </mxGeometry>
        </mxCell>
        <mxCell id="sE2eDl3IBhnxxQkwJqKN-70" value="Service Product" style="text;html=1;align=center;verticalAlign=middle;whiteSpace=wrap;rounded=0;fontSize=7;labelPosition=center;verticalLabelPosition=middle;fontStyle=1" vertex="1" parent="1">
          <mxGeometry x="290" y="120" width="60" height="10" as="geometry" />
        </mxCell>
        <mxCell id="sE2eDl3IBhnxxQkwJqKN-71" value="Service OnlineCar" style="text;html=1;align=center;verticalAlign=middle;whiteSpace=wrap;rounded=0;fontSize=7;labelPosition=center;verticalLabelPosition=middle;fontStyle=1" vertex="1" parent="1">
          <mxGeometry x="290" y="200" width="70" height="10" as="geometry" />
        </mxCell>
        <mxCell id="sE2eDl3IBhnxxQkwJqKN-73" value="" style="endArrow=none;html=1;rounded=0;exitX=0.75;exitY=1;exitDx=0;exitDy=0;strokeColor=#CC0000;" edge="1" parent="1" source="sE2eDl3IBhnxxQkwJqKN-15">
          <mxGeometry width="50" height="50" relative="1" as="geometry">
            <mxPoint x="450" y="180" as="sourcePoint" />
            <mxPoint x="610" y="180" as="targetPoint" />
            <Array as="points">
              <mxPoint x="460" y="180" />
            </Array>
          </mxGeometry>
        </mxCell>
        <mxCell id="sE2eDl3IBhnxxQkwJqKN-74" value="" style="endArrow=none;html=1;rounded=0;exitX=0.75;exitY=0;exitDx=0;exitDy=0;strokeColor=#CC0000;" edge="1" parent="1" source="sE2eDl3IBhnxxQkwJqKN-9">
          <mxGeometry width="50" height="50" relative="1" as="geometry">
            <mxPoint x="540" y="180" as="sourcePoint" />
            <mxPoint x="460" y="180" as="targetPoint" />
          </mxGeometry>
        </mxCell>
        <mxCell id="sE2eDl3IBhnxxQkwJqKN-75" value="save[type]" style="text;html=1;align=center;verticalAlign=middle;whiteSpace=wrap;rounded=0;fontSize=5;" vertex="1" parent="1">
          <mxGeometry x="629.5" y="215" width="27" height="10" as="geometry" />
        </mxCell>
        <mxCell id="sE2eDl3IBhnxxQkwJqKN-76" value="" style="image;aspect=fixed;perimeter=ellipsePerimeter;html=1;align=center;shadow=0;dashed=0;spacingTop=3;image=img/lib/active_directory/documents.svg;" vertex="1" parent="1">
          <mxGeometry x="840" y="205" width="26.4" height="40" as="geometry" />
        </mxCell>
        <mxCell id="sE2eDl3IBhnxxQkwJqKN-78" value="saveInFile" style="text;html=1;align=center;verticalAlign=middle;whiteSpace=wrap;rounded=0;fontSize=5;" vertex="1" parent="1">
          <mxGeometry x="800" y="210" width="27" height="10" as="geometry" />
        </mxCell>
        <mxCell id="sE2eDl3IBhnxxQkwJqKN-81" style="edgeStyle=orthogonalEdgeStyle;rounded=0;orthogonalLoop=1;jettySize=auto;html=1;exitX=1;exitY=0.5;exitDx=0;exitDy=0;entryX=0;entryY=0.5;entryDx=0;entryDy=0;strokeColor=#4D4D4D;endArrow=block;endFill=1;" edge="1" parent="1" source="sE2eDl3IBhnxxQkwJqKN-79" target="sE2eDl3IBhnxxQkwJqKN-80">
          <mxGeometry relative="1" as="geometry" />
        </mxCell>
        <mxCell id="sE2eDl3IBhnxxQkwJqKN-79" value="" style="image;aspect=fixed;perimeter=ellipsePerimeter;html=1;align=center;shadow=0;dashed=0;spacingTop=3;image=img/lib/active_directory/user.svg;" vertex="1" parent="1">
          <mxGeometry x="40" y="120" width="18.5" height="50" as="geometry" />
        </mxCell>
        <mxCell id="sE2eDl3IBhnxxQkwJqKN-82" style="edgeStyle=orthogonalEdgeStyle;rounded=0;orthogonalLoop=1;jettySize=auto;html=1;exitX=1;exitY=0.5;exitDx=0;exitDy=0;entryX=0;entryY=0.5;entryDx=0;entryDy=0;endArrow=block;endFill=1;strokeColor=#4D4D4D;" edge="1" parent="1" source="sE2eDl3IBhnxxQkwJqKN-80" target="sE2eDl3IBhnxxQkwJqKN-18">
          <mxGeometry relative="1" as="geometry" />
        </mxCell>
        <mxCell id="sE2eDl3IBhnxxQkwJqKN-83" style="edgeStyle=orthogonalEdgeStyle;rounded=0;orthogonalLoop=1;jettySize=auto;html=1;entryX=0;entryY=0.5;entryDx=0;entryDy=0;endArrow=block;endFill=1;strokeColor=#4D4D4D;" edge="1" parent="1" source="sE2eDl3IBhnxxQkwJqKN-80" target="sE2eDl3IBhnxxQkwJqKN-20">
          <mxGeometry relative="1" as="geometry" />
        </mxCell>
        <mxCell id="sE2eDl3IBhnxxQkwJqKN-84" style="edgeStyle=orthogonalEdgeStyle;rounded=0;orthogonalLoop=1;jettySize=auto;html=1;entryX=0;entryY=0.5;entryDx=0;entryDy=0;endArrow=block;endFill=1;strokeColor=#4D4D4D;" edge="1" parent="1" source="sE2eDl3IBhnxxQkwJqKN-80" target="sE2eDl3IBhnxxQkwJqKN-21">
          <mxGeometry relative="1" as="geometry" />
        </mxCell>
        <mxCell id="sE2eDl3IBhnxxQkwJqKN-85" style="edgeStyle=orthogonalEdgeStyle;rounded=0;orthogonalLoop=1;jettySize=auto;html=1;entryX=0;entryY=0.5;entryDx=0;entryDy=0;endArrow=block;endFill=1;strokeColor=#4D4D4D;" edge="1" parent="1" source="sE2eDl3IBhnxxQkwJqKN-80" target="sE2eDl3IBhnxxQkwJqKN-22">
          <mxGeometry relative="1" as="geometry" />
        </mxCell>
        <mxCell id="sE2eDl3IBhnxxQkwJqKN-80" value="" style="image;aspect=fixed;perimeter=ellipsePerimeter;html=1;align=center;shadow=0;dashed=0;spacingTop=3;image=img/lib/active_directory/vista_client.svg;" vertex="1" parent="1">
          <mxGeometry x="80" y="120" width="38" height="50" as="geometry" />
        </mxCell>
      </root>
    </mxGraphModel>
  </diagram>
</mxfile>
